<svg width="291" height="63" viewBox="0 0 291 63" fill="none" xmlns="http://www.w3.org/2000/svg">
<path d="M63.0867 0H0V62.9977H63.0867V0Z" fill="#70A82E"/>
<path d="M60.5632 60.4789L60.5632 2.52109L2.52347 2.52109L2.52347 60.4789H60.5632Z" fill="white"/>
<path d="M23.9729 43.4696H21.4495V51.0293H23.9729V43.4696Z" fill="#70A82E"/>
<path d="M8.20117 51.0293V53.5492H54.8853V51.0293H8.20117Z" fill="#70A82E"/>
<path d="M36.912 44.0995L31.8146 35.2799H33.9154L29.7075 27.7201H32.0606L22.4715 11.2589L12.8823 27.7201H15.2417L11.0338 35.2799H13.1346L8.03723 44.0995H36.912Z" fill="#70A82E"/>
<path d="M41.6372 42.8396H39.7446V52.9192H41.6372V42.8396Z" fill="#AECC4D"/>
<path d="M50.1792 27.9343C50.6071 26.8644 50.7659 25.706 50.6416 24.5606C50.5173 23.4152 50.1138 22.3177 49.4664 21.3641C48.819 20.4105 47.9474 19.6298 46.9278 19.0905C45.9083 18.5512 44.772 18.2697 43.6182 18.2705C43.1157 18.2717 42.6147 18.3244 42.1231 18.428C40.8217 17.3542 39.1779 16.7822 37.4901 16.8157C35.8023 16.8492 34.1826 17.4862 32.9251 18.6108C31.6675 19.7354 30.8556 21.2731 30.6368 22.9446C30.418 24.6161 30.8069 26.3105 31.7327 27.7201C29.6512 28.9957 28.1351 31.0158 27.4933 33.3688C26.8515 35.7218 27.1323 38.2306 28.2785 40.3841C29.4247 42.5375 31.3501 44.1735 33.6622 44.9587C35.9744 45.7438 38.4993 45.6191 40.7225 44.6098C41.819 45.2303 43.0271 45.629 44.2779 45.7832C45.5287 45.9375 46.7977 45.8442 48.0124 45.5087C49.2271 45.1732 50.3637 44.6021 51.3573 43.8279C52.351 43.0538 53.1822 42.0918 53.8036 40.9969C54.4249 39.902 54.8242 38.6955 54.9787 37.4465C55.1331 36.1975 55.0397 34.9303 54.7037 33.7173C54.3678 32.5044 53.7958 31.3694 53.0206 30.3771C52.2454 29.3849 51.282 28.5548 50.1855 27.9343H50.1792Z" fill="#AECC4D"/>
<path d="M69.4269 37.7557L74.8839 36.7099C74.8839 37.2454 74.8839 37.7242 74.8839 38.14C74.9061 38.5924 74.9587 39.0428 75.0416 39.4881C75.1009 39.9005 75.2155 40.3031 75.3823 40.6851C75.5244 40.9937 75.7412 41.2621 76.0131 41.4662C76.2717 41.6801 76.5985 41.7941 76.9342 41.7875C78.0004 41.7875 78.5303 41.1072 78.5303 39.7464C78.5303 37.8859 77.4788 36.0358 75.376 34.1963L73.7168 32.76C73.1868 32.319 72.7642 31.9473 72.455 31.6512C72.0627 31.2736 71.69 30.8762 71.3384 30.4606C70.9498 30.0137 70.6113 29.5257 70.329 29.0053C70.0579 28.4649 69.8463 27.8967 69.6982 27.3107C69.5199 26.6258 69.4329 25.9204 69.4395 25.2128C69.3921 24.2625 69.5514 23.3131 69.9064 22.4301C70.2615 21.547 70.8038 20.7512 71.4961 20.0974C73.0159 18.8082 74.975 18.1538 76.9657 18.2705C77.8621 18.2552 78.7519 18.4253 79.5792 18.7701C80.4065 19.1149 81.1534 19.6268 81.7729 20.2738C82.4145 20.9052 82.9209 21.6602 83.2615 22.493C83.602 23.3258 83.7695 24.219 83.7539 25.1183V25.3073V25.7546L78.1959 26.5232C78.1959 26.4182 78.1959 26.2481 78.1959 26.0129C78.1959 25.7798 78.1959 25.5908 78.1959 25.4459C78.1973 25.1043 78.1719 24.7631 78.1202 24.4254C78.068 24.0931 77.9857 23.7663 77.8742 23.4489C77.7759 23.1467 77.5944 22.8782 77.3506 22.674C77.1073 22.4803 76.8037 22.3777 76.4926 22.3842C76.2282 22.3703 75.965 22.4279 75.7307 22.551C75.4964 22.6741 75.2997 22.8581 75.1615 23.0835C74.8574 23.5748 74.7039 24.1442 74.7199 24.7215C74.7174 25.249 74.8049 25.773 74.9785 26.2712C75.1571 26.7634 75.422 27.2199 75.7608 27.6194C76.0633 27.9871 76.3877 28.3363 76.7323 28.6651C77.0225 28.936 77.42 29.2951 77.912 29.6731C78.4041 30.0511 78.7574 30.3661 78.9656 30.555C79.6329 31.1476 80.2648 31.7786 80.8582 32.445C81.4076 33.0657 81.9035 33.7317 82.3407 34.4357C82.8032 35.1762 83.1539 35.9807 83.3817 36.8233C83.6204 37.7299 83.7371 38.6642 83.7286 39.6015C83.7483 40.448 83.5836 41.2886 83.2459 42.0652C82.9082 42.8418 82.4057 43.5359 81.7729 44.0995C80.445 45.2895 78.7116 45.9274 76.9279 45.8824C75.7951 45.9041 74.6719 45.6715 73.6411 45.202C72.7328 44.783 71.9403 44.1495 71.3321 43.3562C70.7429 42.5742 70.2848 41.7019 69.9757 40.7733C69.6555 39.7972 69.4708 38.7819 69.4269 37.7557ZM74.6063 16.7271L71.6349 10.7108H75.704L76.7828 13.678L77.8742 10.7108H81.937L78.8899 16.7019L74.6063 16.7271Z" fill="#70A82E"/>
<path d="M86.2144 45.3595V18.7808H91.5957V28.8604L95.7657 18.7808H101.784L96.3524 29.6668L102.201 45.3595H96.611L92.5861 33.2072L91.6146 35.7271V45.3595H86.2144Z" fill="#70A82E"/>
<path d="M102.642 36.6154V27.7202C102.642 21.4204 105.233 18.2705 110.414 18.2705C115.596 18.2705 118.195 21.4204 118.212 27.7202V36.5398C118.217 37.5277 118.137 38.5141 117.972 39.4881C117.818 40.3748 117.547 41.237 117.165 42.0521C116.813 42.821 116.323 43.5192 115.72 44.1121C115.078 44.7068 114.32 45.1616 113.493 45.4477C111.497 46.0904 109.35 46.0904 107.355 45.4477C106.531 45.1563 105.777 44.6972 105.14 44.0996C104.536 43.5268 104.046 42.8449 103.696 42.0899C103.315 41.2893 103.041 40.4421 102.882 39.57C102.713 38.5944 102.632 37.6055 102.642 36.6154ZM112.824 37.8313V26.3405C112.824 23.724 112.021 22.4158 110.414 22.4158C109.978 22.4025 109.55 22.5282 109.19 22.7748C108.852 23.0246 108.595 23.3687 108.452 23.7639C108.298 24.1712 108.185 24.5935 108.118 25.0239C108.053 25.466 108.021 25.9125 108.023 26.3594V37.8313C108.023 40.4394 108.82 41.7434 110.414 41.7434C112.008 41.7434 112.812 40.4394 112.824 37.8313Z" fill="#70A82E"/>
<path d="M121.032 45.3595V18.7808H126.413V41.6678H131.706V45.3595H121.032Z" fill="#70A82E"/>
<path d="M133.422 45.3595V18.7808H138.791V28.8604L142.961 18.7808H148.979L143.554 29.6668L149.389 45.3595H143.838L139.813 33.2072L138.835 35.7271V45.3595H133.422Z" fill="#70A82E"/>
<path d="M153.812 45.3595V36.5398L148.815 18.7493H153.862L156.348 30.429C156.651 29.1691 157.109 27.2225 157.723 24.5891C158.354 21.9747 158.783 20.0281 159.079 18.7493H164.025L159.01 36.5398V45.3595H153.812Z" fill="#70A82E"/>
<path d="M171.659 45.3595V18.7808H178.106L180.945 36.502L184.005 18.7808H190.232V45.3595H186.27L186.15 26.6681C185.856 28.5916 185.338 31.7058 184.598 36.0106C183.858 40.3155 183.34 43.4317 183.046 45.3595H179.021L175.753 26.5484L175.64 45.3595H171.659Z" fill="#70A82E"/>
<path d="M193.045 36.6154V27.7202C193.045 21.4204 195.636 18.2705 200.818 18.2705C205.999 18.2705 208.602 21.4204 208.628 27.7202V36.5398C208.633 37.5277 208.553 38.5141 208.388 39.4881C208.221 40.3566 207.941 41.1995 207.555 41.9954C207.204 42.7643 206.714 43.4625 206.111 44.0555C205.469 44.6501 204.711 45.1049 203.884 45.391C201.888 46.0337 199.741 46.0337 197.745 45.391C196.94 45.1118 196.199 44.6725 195.569 44.0996C194.964 43.5268 194.474 42.8449 194.124 42.0899C193.743 41.2893 193.469 40.4421 193.31 39.57C193.133 38.5952 193.044 37.6063 193.045 36.6154ZM203.227 37.8313V26.3405C203.227 23.724 202.424 22.4158 200.818 22.4158C200.382 22.4025 199.953 22.5282 199.594 22.7748C199.255 23.0246 198.999 23.3687 198.856 23.7639C198.701 24.1712 198.589 24.5935 198.521 25.0239C198.456 25.466 198.424 25.9125 198.427 26.3594V37.8313C198.427 40.4394 199.224 41.7434 200.818 41.7434C202.412 41.7434 203.219 40.4394 203.24 37.8313H203.227Z" fill="#70A82E"/>
<path d="M211.448 45.3595V18.7682H215.321L221.163 32.6781V18.7682H225.63V45.3595H221.901L216.078 30.6117V45.3595H211.448Z" fill="#70A82E"/>
<path d="M231.32 45.3595V22.8H227.415V18.7808H240.531V22.8H236.701V45.3595H231.32Z" fill="#70A82E"/>
<path d="M240.222 45.3595L245.975 18.7808H250.738L256.473 45.3595H251.161L250.069 39.6897H246.593L245.559 45.3595H240.222ZM246.966 36.3697H249.716L248.372 26.5043L246.966 36.3697Z" fill="#70A82E"/>
<path d="M258.189 45.3595V18.7682H262.062L267.904 32.6781V18.7682H272.364V45.3595H268.642L262.813 30.6117V45.3595H258.189Z" fill="#70A82E"/>
<path d="M275.19 36.6154V27.7202C275.19 21.4204 277.783 18.2705 282.969 18.2705C288.155 18.2705 290.752 21.4204 290.76 27.7202V36.5398C290.767 37.5275 290.689 38.5139 290.527 39.4881C290.373 40.3748 290.101 41.237 289.719 42.0521C289.366 42.8215 288.874 43.5197 288.268 44.1121C287.628 44.7078 286.869 45.1628 286.041 45.4477C284.048 46.0903 281.903 46.0903 279.909 45.4477C279.084 45.1558 278.328 44.6968 277.689 44.0995C277.088 43.5247 276.601 42.8432 276.25 42.0899C275.869 41.2893 275.596 40.4421 275.436 39.57C275.265 38.5946 275.183 37.6057 275.19 36.6154ZM285.379 37.8313V26.3405C285.379 23.724 284.576 22.4158 282.969 22.4158C282.52 22.3947 282.077 22.5208 281.707 22.7748C281.369 23.0246 281.112 23.3687 280.969 23.7639C280.817 24.1721 280.705 24.5941 280.635 25.0239C280.569 25.466 280.538 25.9125 280.54 26.3594V37.8313C280.54 40.4394 281.339 41.7434 282.937 41.7434C284.536 41.7434 285.349 40.4394 285.379 37.8313Z" fill="#70A82E"/>
<path d="M69.5909 60.2269L73.5086 54.1791H69.9442V53.3539H74.6883V53.9083L70.758 59.9875H74.7262V60.7939H69.5909V60.2269Z" fill="#89898A"/>
<path d="M81.4576 58.526H78.7448L78.0256 60.7939H77.0604L79.5839 53.3539H80.6501L83.1735 60.7939H82.1641L81.4576 58.526ZM81.2178 57.7637L80.8645 56.6298C80.7321 56.214 80.5996 55.8045 80.4797 55.3698C80.3599 54.9351 80.24 54.5382 80.1201 54.1099H80.0697C79.9561 54.5382 79.8425 54.9603 79.7227 55.3698C79.6028 55.7793 79.4703 56.1951 79.3315 56.6298L78.9846 57.7637H81.2178Z" fill="#89898A"/>
<path d="M86.1259 53.3539H87.0596V56.5038H90.5231V53.3539H91.4757V60.7939H90.5294V57.2912H87.0596V60.7939H86.1196L86.1259 53.3539Z" fill="#89898A"/>
<path d="M99.5129 60.7939L97.7213 57.644H96.3649V60.7939H95.4249V53.3539H97.7844C98.1363 53.3523 98.4873 53.3882 98.8316 53.461C99.1297 53.5262 99.4124 53.6481 99.6644 53.8201C99.8926 53.9824 100.077 54.1989 100.201 54.45C100.341 54.7538 100.407 55.086 100.396 55.4202C100.423 55.9264 100.261 56.4245 99.9419 56.8187C99.6209 57.1777 99.195 57.4268 98.7244 57.5306L100.617 60.775L99.5129 60.7939ZM96.3586 56.8817H97.6203C98.0957 56.9135 98.5682 56.7872 98.9641 56.5227C99.1234 56.3931 99.2486 56.2267 99.3289 56.0379C99.4091 55.849 99.442 55.6435 99.4246 55.4391C99.4446 55.242 99.4119 55.0432 99.3299 54.8628C99.2479 54.6824 99.1195 54.527 98.9578 54.4122C98.5471 54.1882 98.081 54.0856 97.614 54.1161H96.3523L96.3586 56.8817Z" fill="#89898A"/>
<path d="M107.21 58.526H104.497L103.784 60.7939H102.831L105.355 53.3539H106.427L108.951 60.7939H107.941L107.21 58.526ZM106.976 57.7637L106.623 56.6298C106.484 56.214 106.358 55.8045 106.238 55.3698C106.118 54.9351 105.992 54.5382 105.872 54.1099H105.828C105.714 54.5382 105.594 54.9603 105.475 55.3698C105.355 55.7793 105.222 56.1951 105.09 56.6298L104.737 57.7637H106.976Z" fill="#89898A"/>
<path d="M111.878 53.3539H113.739C114.219 53.3207 114.7 53.3882 115.152 53.5521C115.604 53.7159 116.017 53.9724 116.363 54.3051C117.005 55.0663 117.326 56.0464 117.259 57.0392C117.268 57.575 117.192 58.1088 117.032 58.6205C116.899 59.0578 116.671 59.4602 116.363 59.7985C116.065 60.1289 115.69 60.3818 115.272 60.5356C114.799 60.7174 114.296 60.8051 113.789 60.7939H111.897L111.878 53.3539ZM113.676 60.0253C114.04 60.0516 114.406 59.9943 114.745 59.8579C115.084 59.7214 115.387 59.5093 115.632 59.2379C116.095 58.6022 116.318 57.8235 116.262 57.0392C116.321 56.2645 116.097 55.4948 115.632 54.8721C115.381 54.6119 115.075 54.4104 114.737 54.2818C114.399 54.1533 114.037 54.1011 113.676 54.1287H112.824V60.0253H113.676Z" fill="#89898A"/>
<path d="M120.761 53.3539H121.757L124.451 58.0283L125.259 59.5717H125.303C125.303 59.1938 125.259 58.7969 125.227 58.3937C125.196 57.9905 125.189 57.5936 125.189 57.1967V53.3539H126.085V60.7939H125.107L122.388 56.1132L121.581 54.5823H121.537C121.568 54.9603 121.593 55.3383 121.625 55.7289C121.656 56.1195 121.663 56.5101 121.663 56.9069V60.7939H120.767L120.761 53.3539Z" fill="#89898A"/>
<path d="M130.003 53.3539H130.943V60.7939H130.003V53.3539Z" fill="#89898A"/>
<path d="M134.45 57.0771C134.445 56.5292 134.53 55.9843 134.703 55.4643C134.85 55.0168 135.086 54.6034 135.397 54.2485C135.687 53.9225 136.044 53.6625 136.444 53.4862C136.862 53.3068 137.313 53.2167 137.769 53.2216C138.183 53.2103 138.594 53.3057 138.961 53.4988C139.274 53.6605 139.558 53.8735 139.8 54.1288L139.27 54.7587C139.089 54.5574 138.876 54.3871 138.639 54.2548C138.381 54.1245 138.095 54.0596 137.807 54.0658C137.473 54.0601 137.143 54.1312 136.841 54.2737C136.547 54.4201 136.294 54.6365 136.103 54.9036C135.884 55.185 135.721 55.5058 135.624 55.8486C135.504 56.2577 135.447 56.6824 135.453 57.1086C135.45 57.5341 135.505 57.958 135.617 58.3685C135.716 58.7114 135.871 59.0352 136.078 59.3261C136.272 59.5887 136.526 59.8009 136.819 59.9445C137.112 60.0882 137.436 60.1592 137.762 60.1514C138.091 60.1597 138.416 60.086 138.709 59.9372C138.997 59.7719 139.255 59.5589 139.472 59.3072L140.008 59.8868C139.729 60.2121 139.391 60.4814 139.011 60.6805C138.619 60.8731 138.187 60.9703 137.75 60.964C137.303 60.9688 136.86 60.8786 136.45 60.6994C136.054 60.5296 135.7 60.2735 135.416 59.9498C135.112 59.5925 134.88 59.1795 134.734 58.7339C134.547 58.2014 134.451 57.6413 134.45 57.0771Z" fill="#89898A"/>
<path d="M144.607 54.1791H142.355V53.3539H147.806V54.1791H145.56V60.7939H144.607V54.1791Z" fill="#89898A"/>
<path d="M150.02 53.3539H151.03L152.222 57.3668C152.361 57.8141 152.481 58.2299 152.581 58.6268C152.682 59.0237 152.809 59.408 152.954 59.8489H152.998C153.13 59.408 153.256 59.0048 153.357 58.6268L153.711 57.3668L154.903 53.3539H155.868L153.509 60.7939H152.405L150.02 53.3539Z" fill="#89898A"/>
<path d="M159.458 52.7869H158.676L159.672 51.527H160.739L159.458 52.7869ZM158.789 53.3539H159.729V60.7939H158.789V53.3539Z" fill="#89898A"/>
<path d="M167.861 53.3539H170.145C170.522 53.3506 170.899 53.3887 171.268 53.4673C171.58 53.5317 171.876 53.6581 172.138 53.839C172.38 54.0105 172.572 54.2432 172.694 54.513C172.834 54.8388 172.901 55.1916 172.889 55.5462C172.898 55.8965 172.831 56.2446 172.694 56.5668C172.565 56.8449 172.373 57.0888 172.132 57.2786C171.873 57.4761 171.577 57.6196 171.261 57.7007C170.898 57.8033 170.522 57.8521 170.145 57.8456H168.801V60.7939H167.861V53.3539ZM170.031 57.0771C170.541 57.1148 171.048 56.9842 171.476 56.7054C171.641 56.5634 171.77 56.3843 171.852 56.1828C171.935 55.9812 171.968 55.763 171.949 55.5462C171.971 55.3341 171.938 55.1199 171.854 54.9238C171.77 54.7276 171.638 54.556 171.47 54.4249C171.029 54.1884 170.53 54.0814 170.031 54.1162H168.801V57.0771H170.031Z" fill="#89898A"/>
<path d="M180.384 60.7939L178.592 57.644H177.274V60.7939H176.327V53.3539H178.655C179.009 53.3523 179.362 53.3882 179.709 53.461C180.005 53.525 180.286 53.647 180.535 53.8201C180.765 53.9822 180.952 54.1986 181.078 54.4501C181.212 54.7553 181.277 55.0868 181.267 55.4202C181.294 55.9264 181.132 56.4245 180.813 56.8188C180.493 57.1763 180.07 57.4252 179.601 57.5306L181.494 60.775L180.384 60.7939ZM180.157 51.5207L179.072 52.7806H178.163L177.072 51.5207H177.829L178.592 52.2892H178.636L179.4 51.5207H180.157ZM177.274 56.8818H178.535C179.009 56.9126 179.479 56.7863 179.873 56.5227C180.033 56.3938 180.16 56.2277 180.241 56.0388C180.322 55.8499 180.356 55.6441 180.34 55.4391C180.36 55.242 180.327 55.0432 180.245 54.8628C180.163 54.6824 180.034 54.527 179.873 54.4123C179.464 54.1891 179 54.0864 178.535 54.1162H177.274V56.8818Z" fill="#89898A"/>
<path d="M184.794 53.3539H189.084V54.1791H185.734V56.5164H188.56V57.3227H185.734V60.019H189.197V60.7939H184.781L184.794 53.3539Z" fill="#89898A"/>
<path d="M196.761 60.7939L194.969 57.644H193.613V60.7939H192.673V53.3539H195.001C195.353 53.3523 195.704 53.3882 196.048 53.461C196.347 53.525 196.63 53.647 196.881 53.8201C197.111 53.9808 197.295 54.1977 197.417 54.45C197.557 54.7538 197.624 55.086 197.613 55.4202C197.639 55.9264 197.478 56.4245 197.159 56.8187C196.838 57.1777 196.412 57.4268 195.941 57.5306L197.834 60.775L196.761 60.7939ZM193.607 56.8817H194.869C195.344 56.9135 195.816 56.7872 196.212 56.5227C196.373 56.3938 196.499 56.2277 196.581 56.0388C196.662 55.8499 196.696 55.644 196.679 55.4391C196.699 55.242 196.666 55.0432 196.584 54.8628C196.502 54.6824 196.374 54.527 196.212 54.4122C195.802 54.1882 195.335 54.0856 194.869 54.1161H193.607V56.8817Z" fill="#89898A"/>
<path d="M203.915 60.9325C203.479 60.9332 203.049 60.8386 202.653 60.6553C202.263 60.4757 201.918 60.2109 201.644 59.8804C201.357 59.5174 201.143 59.1024 201.013 58.6583C200.85 58.1342 200.772 57.5878 200.78 57.0392C200.771 56.4968 200.85 55.9565 201.013 55.4391C201.143 55.0007 201.357 54.5919 201.644 54.2358C201.921 53.9128 202.265 53.6547 202.653 53.4799C203.06 53.3073 203.498 53.2184 203.94 53.2184C204.383 53.2184 204.82 53.3073 205.227 53.4799C205.618 53.6563 205.965 53.9166 206.243 54.2421C206.53 54.5961 206.744 55.0027 206.874 55.4391C207.037 55.9544 207.116 56.4926 207.107 57.0329C207.115 57.5815 207.037 58.1279 206.874 58.652C206.744 59.0961 206.53 59.511 206.243 59.8741C205.965 60.2034 205.618 60.4679 205.227 60.649C204.817 60.8412 204.368 60.9381 203.915 60.9325ZM203.915 60.1009C204.229 60.1053 204.539 60.0317 204.817 59.8867C205.094 59.7322 205.331 59.5167 205.511 59.2568C205.713 58.9622 205.864 58.6366 205.959 58.2929C206.07 57.8823 206.123 57.4582 206.117 57.0329C206.124 56.6076 206.071 56.1834 205.959 55.773C205.867 55.4361 205.715 55.1183 205.511 54.8343C205.329 54.5845 205.091 54.3797 204.817 54.2358C204.536 54.0989 204.228 54.0277 203.915 54.0277C203.602 54.0277 203.294 54.0989 203.013 54.2358C202.739 54.3797 202.502 54.5845 202.319 54.8343C202.113 55.1168 201.961 55.4351 201.871 55.773C201.759 56.1834 201.706 56.6076 201.713 57.0329C201.707 57.4582 201.76 57.8823 201.871 58.2929C201.964 58.6376 202.115 58.9637 202.319 59.2568C202.499 59.5167 202.737 59.7322 203.013 59.8867C203.291 60.0335 203.601 60.1072 203.915 60.1009Z" fill="#89898A"/>
<path d="M209.448 53.3539H210.457L211.65 57.3668C211.788 57.8141 211.908 58.2299 212.009 58.6268C212.11 59.0237 212.236 59.408 212.375 59.8489H212.426C212.558 59.408 212.684 59.0048 212.785 58.6268L213.138 57.3668L214.331 53.3539H215.296L212.955 60.7939H211.851L209.448 53.3539Z" fill="#89898A"/>
<path d="M222.425 53.3539H223.403L226.09 58.0283L226.898 59.5717H226.942C226.942 59.1938 226.898 58.7969 226.872 58.3937C226.847 57.9905 226.828 57.5936 226.828 57.1967V53.3539H227.743V60.7939H226.765L224.059 56.1132L223.258 54.5823H223.207C223.207 54.9603 223.27 55.3383 223.295 55.7289C223.321 56.1195 223.333 56.5101 223.333 56.9069V60.7939H222.437L222.425 53.3539Z" fill="#89898A"/>
<path d="M235.074 58.526H232.361L231.648 60.7939H230.683L233.206 53.3539H234.272L236.796 60.7939H235.786L235.074 58.526ZM234.834 57.7637L234.487 56.6298C234.348 56.214 234.222 55.8045 234.096 55.3698C233.97 54.9351 233.856 54.5382 233.736 54.1099H233.692C233.578 54.5382 233.459 54.9603 233.339 55.3698C233.219 55.7793 233.086 56.1951 232.954 56.6298L232.601 57.7637H234.834Z" fill="#89898A"/>
<path d="M239.729 53.3539H241.622C242.102 53.3215 242.583 53.3894 243.035 53.5532C243.487 53.717 243.899 53.9731 244.246 54.3052C244.888 55.0663 245.209 56.0464 245.142 57.0393C245.151 57.575 245.075 58.1088 244.915 58.6205C244.782 59.0578 244.554 59.4603 244.246 59.7985C243.947 60.1276 243.572 60.3803 243.155 60.5356C242.68 60.7179 242.175 60.8056 241.666 60.7939H239.774L239.729 53.3539ZM241.521 60.0253C241.893 60.0543 242.267 59.9965 242.613 59.8566C242.959 59.7166 243.268 59.4984 243.515 59.219C243.979 58.5836 244.202 57.8047 244.145 57.0204C244.205 56.2456 243.98 55.4757 243.515 54.8532C243.262 54.5929 242.956 54.3913 242.617 54.2628C242.278 54.1343 241.914 54.0821 241.553 54.1099H240.701V60.0064L241.521 60.0253Z" fill="#89898A"/>
<path d="M252.814 53.3539H253.754V59.9875H257.015V60.7939H252.814V53.3539Z" fill="#89898A"/>
<path d="M263.664 58.526H260.952L260.239 60.7939H259.286L261.81 53.3539H262.882L265.406 60.7939H264.396L263.664 58.526ZM263.431 57.7637L263.078 56.6298C262.939 56.214 262.813 55.8045 262.693 55.3698C262.573 54.9351 262.447 54.5382 262.327 54.1099H262.283C262.169 54.5382 262.049 54.9603 261.93 55.3698C261.81 55.7793 261.677 56.1951 261.545 56.6298L261.191 57.7637H263.431Z" fill="#89898A"/>
<path d="M268.333 53.3539H270.547C270.897 53.3531 271.246 53.3869 271.588 53.4547C271.874 53.5131 272.148 53.6219 272.396 53.776C272.615 53.9157 272.795 54.1086 272.919 54.3367C273.046 54.5953 273.109 54.8804 273.102 55.1682C273.104 55.5287 272.994 55.881 272.787 56.1762C272.547 56.4968 272.2 56.7204 271.809 56.8062V56.8503C272.279 56.9024 272.72 57.1007 273.071 57.4172C273.226 57.5767 273.346 57.7665 273.425 57.9746C273.503 58.1828 273.537 58.4048 273.525 58.6268C273.532 58.9579 273.461 59.286 273.317 59.5844C273.183 59.8558 272.984 60.0896 272.736 60.2647C272.466 60.4536 272.162 60.5903 271.841 60.6679C271.466 60.7647 271.08 60.8113 270.692 60.8065H268.32L268.333 53.3539ZM270.377 56.5038C270.861 56.5467 271.346 56.4317 271.759 56.1762C271.898 56.0618 272.009 55.916 272.082 55.7506C272.154 55.5852 272.186 55.4051 272.175 55.2249C272.19 55.0516 272.156 54.8775 272.079 54.7219C272.001 54.5662 271.881 54.4351 271.733 54.343C271.327 54.1404 270.874 54.0491 270.421 54.0784H269.279V56.5038H270.377ZM270.573 60.019C271.095 60.0485 271.614 59.9259 272.068 59.6663C272.247 59.5416 272.39 59.3727 272.484 59.1762C272.578 58.9796 272.619 58.7621 272.604 58.5449C272.617 58.3443 272.575 58.144 272.483 57.9653C272.391 57.7867 272.252 57.6364 272.08 57.5306C271.616 57.2894 271.095 57.1784 270.573 57.2093H269.279V60.019H270.573Z" fill="#89898A"/>
<path d="M276.906 53.3539H281.203V54.1791H277.853V56.5164H280.679V57.3227H277.853V60.019H281.316V60.7939H276.9L276.906 53.3539Z" fill="#89898A"/>
<path d="M284.786 53.3539H285.903L287.341 57.329L287.89 58.8473H287.934L288.458 57.329L289.89 53.335H291V60.7939H290.104V56.6991C290.104 56.3631 290.117 55.9977 290.142 55.6029C290.142 55.1997 290.199 54.8343 290.23 54.5004H290.199L289.568 56.1573L288.136 60.0442H287.606L286.161 56.1573L285.568 54.5004H285.524C285.524 54.8343 285.575 55.1997 285.606 55.6029C285.638 56.0061 285.65 56.3652 285.65 56.6991V60.7939H284.773L284.786 53.3539Z" fill="#89898A"/>
<path d="M54.8853 52.9192H8.20117V54.8091H54.8853V52.9192Z" fill="#AECC4D"/>
<path d="M39.7446 51.0293V52.9192H37.8521C37.8521 52.418 38.0514 51.9372 38.4064 51.5828C38.7613 51.2284 39.2427 51.0293 39.7446 51.0293Z" fill="#AECC4D"/>
<path d="M43.5298 52.9192H41.6372V51.0293C42.1391 51.0293 42.6205 51.2284 42.9755 51.5828C43.3304 51.9372 43.5298 52.4179 43.5298 52.9192Z" fill="#AECC4D"/>
<path d="M21.4495 49.1393V51.0293H19.5569C19.5569 50.528 19.7563 50.0473 20.1112 49.6929C20.4661 49.3385 20.9475 49.1393 21.4495 49.1393Z" fill="#70A82E"/>
<path d="M25.8655 51.0293H23.9729V49.1393C24.4748 49.1393 24.9562 49.3385 25.3111 49.6929C25.6661 50.0473 25.8655 50.528 25.8655 51.0293Z" fill="#70A82E"/>
</svg>
